<?xml version="1.0" encoding="utf-8"?>
<svg viewBox="0 0 200 200" width="200" height="200" xmlns="http://www.w3.org/2000/svg" xmlns:bx="https://boxy-svg.com">
  <g transform="matrix(2.89, 0, 0, 3.14, 125.449341, 168.143661)" id="iW4oO5HJsXGW6i9zfSz2d" bx:origin="0.752964 0.592622"/>
  <path d="M 217.903 33.386 L 252.423 120.947 L 112.616 95.724 L 79.446 9.244 Z M 113.348 94.84 L 250.835 119.645 L 217.179 34.274 L 81.012 10.532 Z" style="fill: none;" transform="matrix(0.945604, 0.32532, -1.469524, 0.551959, 38.456081, -6.956023)"/>
  <path d="M 217.903 33.386 L 252.423 120.947 L 112.616 95.724 L 79.446 9.244 Z M 113.348 94.84 L 250.835 119.645 L 217.179 34.274 L 81.012 10.532 Z" style="fill: none;" transform="matrix(0.945604, 0.32532, -1.469524, 0.551959, 38.456081, -6.956023)"/>
  <path d="M 217.903 33.386 L 252.423 120.947 L 112.616 95.724 L 79.446 9.244 Z M 113.348 94.84 L 250.835 119.645 L 217.179 34.274 L 81.012 10.532 Z" style="fill: none;" transform="matrix(0.945604, 0.32532, -1.469524, 0.551959, 38.456081, -6.956023)"/>
  <g transform="matrix(-1, 0, 0, 0.79, 50.002502, 231.011124)" id="g-1">
    <path d="M -39.132 -256.285 L 34.216 -195.982 C 40.13 -191.119 40.045 -183.154 34.027 -178.19 L 25.968 -171.544 L 25.968 -122.617 L 33.181 -104.356 L 13.825 -104.356 L 20.968 -122.439 L 20.997 -167.444 L -39.444 -117.598 C -42.403 -115.158 -46.246 -113.898 -50.091 -113.825 L -49.997 -113.908 C -53.873 -113.978 -57.64 -115.237 -60.551 -117.637 L -134.022 -178.229 C -140.04 -183.193 -140.125 -191.158 -134.211 -196.021 L -60.863 -256.324 C -57.857 -258.796 -53.879 -259.99 -49.904 -259.915 L -49.997 -259.858 C -45.991 -259.913 -42.091 -258.718 -39.132 -256.285 Z M -24.698 -204.213 L -3.597 -186.819 L -24.698 -169.783 L -24.698 -150.795 L 8.433 -178.129 C 14.451 -183.093 14.536 -191.058 8.622 -195.921 L -24.698 -223.2 Z M -53.464 -231.47 L -68.464 -231.47 L -46.531 -142.273 L -31.531 -142.273 Z M -75.297 -223.201 L -108.617 -195.922 C -114.531 -191.059 -114.446 -183.094 -108.428 -178.13 L -75.297 -150.796 L -75.297 -169.784 L -96.398 -186.82 L -75.297 -204.214 Z" style="stroke-width: 0px;"/>
  </g>
  <path style="" d="M 89.723 146.466 C 92.544 148.194 96.287 148.904 99.906 148.947 L 99.906 148.918 C 103.583 148.897 107.407 148.193 110.277 146.435 L 155.22 117.882 C 161.988 129.256 159.676 135.345 151.929 142.985 C 140.868 153.892 127.78 163.335 112.662 171.312 C 108.468 173.285 104.278 174.279 100.094 174.293 L 100.094 174.324 C 95.847 174.34 91.595 173.346 87.338 171.343 C 72.22 163.366 59.132 153.923 48.071 143.016 C 40.324 135.376 38.012 129.287 44.78 117.913 L 89.723 146.466 Z"/>
</svg>