<?xml version="1.0" encoding="utf-8"?>
<svg viewBox="0 0 200 200" width="200" height="200" xmlns="http://www.w3.org/2000/svg" xmlns:bx="https://boxy-svg.com">
  <g transform="matrix(2.89, 0, 0, 3.14, 125.449341, 168.143661)" id="iW4oO5HJsXGW6i9zfSz2d" bx:origin="0.752964 0.592622"/>
  <path d="M 217.903 33.386 L 252.423 120.947 L 112.616 95.724 L 79.446 9.244 Z M 113.348 94.84 L 250.835 119.645 L 217.179 34.274 L 81.012 10.532 Z" style="fill: none;" transform="matrix(0.945604, 0.32532, -1.469524, 0.551959, 38.456081, -6.956023)"/>
  <path d="M 217.903 33.386 L 252.423 120.947 L 112.616 95.724 L 79.446 9.244 Z M 113.348 94.84 L 250.835 119.645 L 217.179 34.274 L 81.012 10.532 Z" style="fill: none;" transform="matrix(0.945604, 0.32532, -1.469524, 0.551959, 38.456081, -6.956023)"/>
  <path d="M 217.903 33.386 L 252.423 120.947 L 112.616 95.724 L 79.446 9.244 Z M 113.348 94.84 L 250.835 119.645 L 217.179 34.274 L 81.012 10.532 Z" style="fill: none;" transform="matrix(0.945604, 0.32532, -1.469524, 0.551959, 38.456081, -6.956023)"/>
  <g transform="matrix(-1, 0, 0, 0.79, 50.00259, 231.48761)" id="g-1" bx:origin="1.246664 -10.354261">
    <path d="M -39.132 -256.285 L 34.216 -195.982 C 40.13 -191.119 40.045 -183.154 34.027 -178.19 L -39.444 -117.598 C -42.403 -115.158 -46.246 -113.898 -50.091 -113.825 L -50.091 -113.868 C -53.873 -113.978 -57.64 -115.237 -60.551 -117.637 L -134.022 -178.229 C -140.04 -183.193 -140.125 -191.158 -134.211 -196.021 L -60.863 -256.324 C -57.857 -258.796 -53.879 -259.99 -49.904 -259.915 L -49.904 -259.879 C -45.991 -259.913 -42.091 -258.718 -39.132 -256.285 Z" style="stroke-width: 0px;"/>
  </g>
  <path style="" d="M 89.723 145.99 C 92.544 147.718 96.287 148.428 99.906 148.471 L 99.906 148.442 C 103.583 148.421 107.407 147.717 110.277 145.959 L 155.22 117.406 C 161.988 128.78 159.676 134.869 151.929 142.509 C 140.868 153.416 127.78 162.859 112.662 170.836 C 108.468 172.809 104.278 173.803 100.094 173.817 L 100.094 173.848 C 95.847 173.864 91.595 172.87 87.338 170.867 C 72.22 162.89 59.132 153.447 48.071 142.54 C 40.324 134.9 38.012 128.811 44.78 117.437 L 89.723 145.99 Z"/>
</svg>